<mxfile host="app.diagrams.net" modified="2023-07-16T06:37:18.499Z" agent="Mozilla/5.0 (Macintosh; Intel Mac OS X 10.15; rv:109.0) Gecko/20100101 Firefox/115.0" version="21.6.2" etag="82V71qJ3jGwMJrmyMny_" type="github">
  <diagram name="第 1 页" id="GNT0aO6SYC5j8JtBL5FU">
    <mxGraphModel>
      <root>
        <mxCell id="0" />
        <mxCell id="1" parent="0" />
      </root>
    </mxGraphModel>
  </diagram>
</mxfile>
